REM MD5 d67f8d44a1e458ebf098555ec07f87f6
FILE "Official U.S. PlayStation Magazine Demo Disc 20 (USA).bin" BINARY
  TRACK 01 MODE2/2352
    INDEX 01 00:00:00
  TRACK 02 AUDIO
    INDEX 00 45:12:38
    INDEX 01 45:14:38
  TRACK 03 AUDIO
    INDEX 00 45:21:72
    INDEX 01 45:23:72
  TRACK 04 AUDIO
    INDEX 00 45:31:37
    INDEX 01 45:33:37
  TRACK 05 AUDIO
    INDEX 00 46:33:11
    INDEX 01 46:35:11
REM LEADOUT 46:41:07
